<svg width="431" height="144" viewBox="0 0 431 144" fill="none" xmlns="http://www.w3.org/2000/svg">
<path d="M49.8999 67.6V18.3201H69.2799C75.4599 18.3201 80.2599 19.5501 83.6599 22.0201C87.0599 24.4901 88.7699 28.11 88.7699 32.91C88.7699 36.25 87.8499 39.15 86.0099 41.61C84.1699 44.08 81.5299 45.97 78.0899 47.29C74.6499 48.61 70.4999 49.2701 65.6399 49.2701H55.7399V40.8301H67.7199C70.7099 40.8301 73.0499 40.26 74.7499 39.11C76.4499 37.96 77.2999 36.42 77.2999 34.47C77.2999 32.39 76.4999 30.7501 74.8999 29.5701C73.2999 28.3901 71.0799 27.8 68.2299 27.8H61.2499V67.6H49.8999ZM88.5499 68.7401C86.1899 68.7401 84.2099 68.3201 82.6099 67.4901C81.0099 66.6601 79.5699 65.4101 78.2899 63.7401C76.9999 62.0701 75.5999 59.9501 74.0699 57.3801L68.4399 47.79L78.0299 44.1401L83.9699 52.8901C85.4999 55.1201 86.7099 56.8001 87.6199 57.9401C88.5199 59.0901 89.3199 59.8701 90.0199 60.2801C90.7099 60.7001 91.4799 60.91 92.3099 60.91C92.7999 60.91 93.2999 60.88 93.8199 60.8C94.3399 60.73 94.7699 60.6601 95.1199 60.5901L96.3699 67.36C94.8399 67.84 93.4499 68.1901 92.1999 68.4001C90.9499 68.6401 89.7299 68.7401 88.5499 68.7401Z" fill="#1B4B67"/>
<path d="M177.01 67.6V18.3201H195.35C199.93 18.3201 203.82 18.9301 207.02 20.1401C210.21 21.3501 212.66 23.18 214.37 25.61C216.07 28.04 216.92 31.06 216.92 34.67C216.92 38.56 215.91 42.0001 213.9 44.9901C211.88 47.9801 209 50.29 205.25 51.92C201.5 53.55 196.98 54.3701 191.7 54.3701H182.84V44.6801H193.78C197.46 44.6801 200.31 44.0001 202.32 42.6501C204.33 41.3001 205.34 39.26 205.34 36.55C205.34 33.77 204.26 31.5701 202.11 29.9301C199.96 28.3001 197 27.48 193.25 27.48H188.67V67.5901H177.01V67.6Z" fill="#1B4B67"/>
<path d="M229.01 67.6V18.3201H240.89V67.6H229.01ZM232.97 27.6901V18.3101H265.79V27.6901H232.97ZM232.97 47.4901V38.22H261.62V47.4901H232.97ZM232.97 67.6V58.22H267.88V67.6H232.97Z" fill="#1B4B67"/>
<path d="M280.17 67.6V18.3201H299.55C305.73 18.3201 310.53 19.5501 313.93 22.0201C317.33 24.4901 319.04 28.11 319.04 32.91C319.04 36.25 318.12 39.15 316.28 41.61C314.44 44.08 311.8 45.97 308.36 47.29C304.92 48.61 300.77 49.2701 295.91 49.2701H286V40.8301H297.98C300.97 40.8301 303.31 40.26 305.01 39.11C306.71 37.96 307.56 36.42 307.56 34.47C307.56 32.39 306.76 30.7501 305.16 29.5701C303.56 28.3901 301.34 27.8 298.49 27.8H291.51V67.6H280.17ZM318.82 68.7401C316.46 68.7401 314.48 68.3201 312.88 67.4901C311.28 66.6601 309.84 65.4101 308.56 63.7401C307.27 62.0701 305.87 59.9501 304.34 57.3801L298.71 47.79L308.3 44.1401L314.24 52.8901C315.77 55.1201 316.98 56.8001 317.89 57.9401C318.79 59.0901 319.59 59.8701 320.29 60.2801C320.98 60.7001 321.75 60.91 322.58 60.91C323.07 60.91 323.57 60.88 324.09 60.8C324.61 60.73 325.04 60.6601 325.39 60.5901L326.64 67.36C325.11 67.84 323.72 68.1901 322.47 68.4001C321.22 68.6401 320 68.7401 318.82 68.7401Z" fill="#1B4B67"/>
<path d="M330.18 28.0001V18.3101H375.61V28.0001H330.18ZM346.75 67.6V18.3201H359.05V67.6H346.75Z" fill="#1B4B67"/>
<path d="M398.84 48.8401L379.46 18.3101H393.84L406.86 42.5901H403.21L416.34 18.3101H430.51L410.61 48.8401H398.84ZM398.53 67.6V45.4001H410.82V67.5901H398.53V67.6Z" fill="#1B4B67"/>
<path d="M134.36 0.370004C151.3 0.0600045 162.45 15.12 162.4 28.91C162.1 44.69 149.07 57.24 133.28 56.94C133.24 56.94 133.21 56.94 133.17 56.94C117.09 56.56 105.38 42.63 105.77 27.77C106.03 14.17 117.54 0.0100045 134.36 0.370004ZM133.99 43.33C138.77 43.33 142.5 41.41 144.72 37.14C147.51 32.07 147.65 25.95 145.11 20.75C142.94 16.07 139.05 13.87 134.03 13.86C129.01 13.85 125.07 16.18 122.89 20.88C120.62 25.6 120.55 31.07 122.69 35.85C124.78 40.75 128.61 43.28 133.99 43.33Z" fill="#EF4040"/>
<path d="M133.97 87.6201C131.32 84.4701 128.71 81.4301 126.15 78.3201C119.48 70.2701 113.13 62.0201 108.21 52.7401C105.04 47.0001 102.81 40.7901 101.61 34.3401C100.84 30.4501 100.72 26.4501 101.26 22.5201C101.41 25.2801 101.37 27.8201 101.71 30.3101C103.42 43.1801 109.19 53.5401 120.96 59.7701C132.45 65.8401 146.49 63.14 155.78 53.41C161.91 47.03 165.68 38.74 166.46 29.92C166.71 27.53 166.73 25.12 166.88 22.3C167.53 27.55 167.14 32.88 165.73 37.97C163.32 47.05 159.17 55.5701 153.52 63.0701C147.46 71.3201 140.87 79.1701 134.51 87.1901C134.33 87.3401 134.16 87.4901 133.97 87.6201Z" fill="#EF4040"/>
<path d="M0.27002 67.5999V17.4399H18.61C23.19 17.4399 27.08 18.0599 30.28 19.2999C33.47 20.5399 35.92 22.3899 37.63 24.8699C39.33 27.3499 40.18 30.42 40.18 34.09C40.18 38.05 39.17 41.55 37.16 44.59C35.14 47.63 32.26 49.98 28.51 51.64C24.76 53.3 20.24 54.1299 14.96 54.1299H6.10002V44.27H17.04C20.72 44.27 23.57 43.58 25.58 42.2C27.59 40.82 28.6 38.7499 28.6 35.9999C28.6 33.1699 27.52 30.93 25.37 29.27C23.22 27.61 20.26 26.78 16.51 26.78H11.93V67.6099H0.27002V67.5999Z" fill="#1B4B67"/>
<path d="M136.28 95.74V142.42H142.36V95.74H136.28ZM136.28 115.11V122.28H177.98V115.11H136.28ZM170.39 95.74V142.42H181.39V95.74H170.39Z" fill="#1B4B67"/>
<path d="M215.93 142.9C211.72 142.9 208.07 142.09 204.98 140.48C201.89 138.87 199.49 136.58 197.78 133.62C196.07 130.66 195.21 127.24 195.21 123.36V95.53H206.86V121.39C206.86 125.53 207.83 128.76 209.77 131.06C211.71 133.36 214.29 134.51 217.52 134.51C220.61 134.51 222.95 133.46 224.53 131.35C226.11 129.25 226.9 126.28 226.9 122.47V95.53H238.54V120.5C238.54 124.98 237.6 128.91 235.73 132.29C233.85 135.68 231.22 138.3 227.83 140.14C224.43 141.98 220.47 142.9 215.93 142.9Z" fill="#1B4B67"/>
<path d="M252.34 143.28V95.53H273.56C277.84 95.53 281.37 96.64 284.17 98.86C286.97 101.08 288.36 103.91 288.36 107.34C288.36 109.76 287.6 112.09 286.09 114.31C284.58 116.53 282.57 118.37 280.07 119.81C277.57 121.26 274.81 121.98 271.78 121.98L273.85 115.01C277.4 115.01 280.54 115.58 283.27 116.73C286 117.87 288.14 119.46 289.68 121.48C291.23 123.5 292 125.85 292 128.55C292 131.31 291.24 133.82 289.73 136.07C288.22 138.32 286.09 140.09 283.37 141.37C280.64 142.65 277.36 143.29 273.55 143.29H252.34V143.28ZM262.9 134.4H273.95C276.25 134.4 278 133.85 279.18 132.73C280.36 131.62 280.96 130.22 280.96 128.54C280.96 126.86 280.22 125.5 278.74 124.45C277.26 123.41 274.71 122.89 271.09 122.89H260.23V114.21H273.16C274.54 114.21 275.69 113.75 276.61 112.85C277.53 111.94 277.99 110.78 277.99 109.37C277.99 108.36 277.58 107.28 276.76 106.14C275.94 105 274.37 104.42 272.07 104.42H262.89V134.4H262.9Z" fill="#1B4B67"/>
<path d="M173.56 113.76H140.8V122.41H173.56V113.76Z" fill="#1B4B67"/>
<path d="M147.36 95.74H136.28V142.42H147.36V95.74Z" fill="#1B4B67"/>
</svg>
